<?xml version="1.0" encoding="UTF-8" standalone="no" ?>
<!DOCTYPE svg PUBLIC "-//W3C//DTD SVG 1.1//EN" "http://www.w3.org/Graphics/SVG/1.1/DTD/svg11.dtd">
<svg xmlns="http://www.w3.org/2000/svg" xmlns:xlink="http://www.w3.org/1999/xlink" version="1.1" width="1080" height="1080" viewBox="0 0 1080 1080" xml:space="preserve">
<desc>Created with Fabric.js 5.2.4</desc>
<defs>
</defs>
<rect x="0" y="0" width="100%" height="100%" fill="transparent"></rect>
<g transform="matrix(1 0 0 1 540 540)" id="85fe78f1-1490-4b68-b33b-86d16c45c5ca"  >
</g>
<g transform="matrix(1 0 0 1 540 540)" id="b119d8ec-d628-4e95-bfe8-828cb268f999"  >
<rect style="stroke: none; stroke-width: 1; stroke-dasharray: none; stroke-linecap: butt; stroke-dashoffset: 0; stroke-linejoin: miter; stroke-miterlimit: 4; fill: rgb(0,0,0); fill-rule: nonzero; opacity: 1; visibility: hidden;" vector-effect="non-scaling-stroke"  x="-540" y="-540" rx="0" ry="0" width="1080" height="1080" />
</g>
<g transform="matrix(1.72 0 0 1.72 -354.17 -287.84)"  >
<rect style="stroke: none; stroke-width: 1; stroke-dasharray: none; stroke-linecap: butt; stroke-dashoffset: 0; stroke-linejoin: miter; stroke-miterlimit: 4; fill: rgb(255,255,255); fill-opacity: 0; fill-rule: nonzero; opacity: 1;" vector-effect="non-scaling-stroke"  x="-50" y="-50" rx="0" ry="0" width="100" height="100" />
</g>
<g transform="matrix(1.72 0 0 1.72 488.63 554.96)"  >
<rect style="stroke: none; stroke-width: 1; stroke-dasharray: none; stroke-linecap: butt; stroke-dashoffset: 0; stroke-linejoin: miter; stroke-miterlimit: 4; fill: rgb(255,255,255); fill-rule: nonzero; opacity: 1; visibility: hidden;" vector-effect="non-scaling-stroke"  x="-540" y="-540" rx="0" ry="0" width="1080" height="1080" />
</g>
<g transform="matrix(1.4 0 0 1.4 560.59 631.12)"  >
<path style="stroke: none; stroke-width: 1; stroke-dasharray: none; stroke-linecap: butt; stroke-dashoffset: 0; stroke-linejoin: miter; stroke-miterlimit: 4; fill: rgb(206,206,206); fill-rule: nonzero; opacity: 1;" vector-effect="non-scaling-stroke"  transform=" translate(-256, -256)" d="M 392.288 0 L 119.711 0 C 95.285 0 75.51 19.791 75.51 44.202 L 75.51 467.799 C 75.51 492.209 95.285 511.99199999999996 119.712 512.001 L 392.288 512.001 C 416.716 511.993 436.49 492.21 436.49 467.799 L 436.49 44.202 C 436.49 19.791 416.716 0 392.288 0 z M 392.288 490.311 L 119.711 490.311 C 107.27799999999999 490.287 97.223 480.23199999999997 97.199 467.799 L 97.199 44.202 C 97.223 31.768 107.27799999999999 21.714 119.711 21.689999999999998 L 392.28700000000003 21.689999999999998 C 404.72100000000006 21.714 414.776 31.769 414.8 44.202 L 414.8 467.799 C 414.777 480.232 404.722 490.286 392.288 490.311 z" stroke-linecap="round" />
</g>
<g transform="matrix(1.19 0 0 1.19 677.66 349.55)"  >
<rect style="stroke: none; stroke-width: 1; stroke-dasharray: none; stroke-linecap: butt; stroke-dashoffset: 0; stroke-linejoin: miter; stroke-miterlimit: 4; fill: rgb(0,0,0); fill-rule: nonzero; opacity: 1; visibility: hidden;" vector-effect="non-scaling-stroke"  x="-540" y="-540" rx="0" ry="0" width="1080" height="1080" />
</g>
<g transform="matrix(0.53 0 0 0.53 480.73 610.85)"  >
<rect style="stroke: none; stroke-width: 1; stroke-dasharray: none; stroke-linecap: butt; stroke-dashoffset: 0; stroke-linejoin: miter; stroke-miterlimit: 4; fill: rgb(255,255,255); fill-rule: nonzero; opacity: 1; visibility: hidden;" vector-effect="non-scaling-stroke"  x="-540" y="-540" rx="0" ry="0" width="1080" height="1080" />
</g>
<g transform="matrix(2.1 0 0 2.1 431.93 423.1)"  >
<path style="stroke: none; stroke-width: 1; stroke-dasharray: none; stroke-linecap: butt; stroke-dashoffset: 0; stroke-linejoin: miter; stroke-miterlimit: 4; fill: rgb(213,213,213); fill-rule: nonzero; opacity: 1;" vector-effect="non-scaling-stroke"  transform=" translate(-153.79, -90.23)" d="M 154.413 52.961 L 153.786 52.137 L 153.175 52.961 C 150.07000000000002 62.2 133.693 84.90899999999999 127.64700000000002 89.773 L 127.36200000000002 90.229 L 127.64700000000002 90.685 C 133.693 95.549 150.07000000000002 118.265 153.175 127.497 L 153.786 128.321 L 154.413 127.497 C 157.518 118.266 173.895 95.549 179.93200000000002 90.685 L 180.22500000000002 90.229 L 179.93200000000002 89.773 C 173.895 84.909 157.518 62.2 154.413 52.961 z" stroke-linecap="round" />
</g>
<g transform="matrix(2.01 0 0 2.01 690.99 834.98)"  >
<path style="stroke: none; stroke-width: 1; stroke-dasharray: none; stroke-linecap: butt; stroke-dashoffset: 0; stroke-linejoin: miter; stroke-miterlimit: 4; fill: rgb(213,213,213); fill-rule: nonzero; opacity: 1;" vector-effect="non-scaling-stroke"  transform=" translate(-358.2, -431.39)" d="M 358.825 394.118 L 358.20599999999996 393.295 L 357.58699999999993 394.118 C 354.48299999999995 403.358 338.1139999999999 426.066 332.0679999999999 430.93 L 331.77399999999994 431.386 L 332.0679999999999 431.84200000000004 C 338.1139999999999 436.706 354.4819999999999 459.422 357.58699999999993 468.65400000000005 L 358.20599999999996 469.47700000000003 L 358.825 468.65400000000005 C 361.929 459.422 378.307 436.70700000000005 384.352 431.84200000000004 L 384.63599999999997 431.386 L 384.352 430.93 C 378.307 426.065 361.93 403.357 358.825 394.118 z" stroke-linecap="round" />
</g>
<g transform="matrix(3.57 0 0 3.57 569.38 631.7)"  >
<g style="" vector-effect="non-scaling-stroke"   >
		<g transform="matrix(1 0 0 1 -14.31 14.48)"  >
<path style="stroke: none; stroke-width: 1; stroke-dasharray: none; stroke-linecap: butt; stroke-dashoffset: 0; stroke-linejoin: miter; stroke-miterlimit: 4; fill: rgb(213,213,213); fill-rule: nonzero; opacity: 1;" vector-effect="non-scaling-stroke"  transform=" translate(-35.69, -64.48)" d="M 42.531 43.218 L 17.319 68.373 C 13.363999999999999 72.328 13.363999999999999 78.809 17.319 82.76400000000001 C 20.615 86.06000000000002 25.612 86.60900000000001 29.458 84.46700000000001 L 29.458 77.87400000000001 L 34.455 77.87400000000001 L 34.455 68.70200000000001 L 43.903 68.70200000000001 L 43.903 64.47300000000001 L 49.341 64.47300000000001 L 49.341 59.03500000000001 L 55.493 59.03500000000001 L 57.029 57.49900000000001 C 53.73500000000001 56.45400000000001 50.550000000000004 54.58600000000001 47.912000000000006 51.95000000000001 C 45.387 49.424 43.574 46.402 42.531 43.218 z" stroke-linecap="round" />
</g>
		<g transform="matrix(1 0 0 1 14.93 -15.05)"  >
<path style="stroke: none; stroke-width: 1; stroke-dasharray: none; stroke-linecap: butt; stroke-dashoffset: 0; stroke-linejoin: miter; stroke-miterlimit: 4; fill: rgb(213,213,213); fill-rule: nonzero; opacity: 1;" vector-effect="non-scaling-stroke"  transform=" translate(-64.93, -34.95)" d="M 79.551 20.313 C 71.475 12.241 58.349000000000004 12.241 50.274 20.313 C 42.202 28.387 42.202 41.516 50.274 49.589 C 58.349000000000004 57.663 71.475 57.663 79.551 49.589 C 87.68 41.515 87.68 28.387 79.551 20.313 z M 75.267 32.671 C 73.068 34.924 69.443 34.924 67.191 32.671 C 64.99600000000001 30.474 64.99600000000001 26.85 67.191 24.599 C 69.443 22.4 73.068 22.4 75.267 24.599 C 77.519 26.85 77.519 30.474 75.267 32.671 z" stroke-linecap="round" />
</g>
</g>
</g>
<g transform="matrix(3.22 0 0 3.22 1842.45 -1805.49)" id="Icons"  >
<rect style="stroke: none; stroke-width: 1; stroke-dasharray: none; stroke-linecap: butt; stroke-dashoffset: 0; stroke-linejoin: round; stroke-miterlimit: 2; fill: none; fill-rule: evenodd; opacity: 1;" vector-effect="non-scaling-stroke"  x="-640" y="-400" rx="0" ry="0" width="1280" height="800" />
</g>
<g transform="matrix(0 7.42 7.42 0 560.09 197.36)" id="half-circle"  >
<path style="stroke: none; stroke-width: 1; stroke-dasharray: none; stroke-linecap: butt; stroke-dashoffset: 0; stroke-linejoin: round; stroke-miterlimit: 2; fill: rgb(206,206,206); fill-rule: evenodd; opacity: 1;" vector-effect="non-scaling-stroke"  transform=" translate(-20.07, -31.98)" d="M 32.076 7.963 C 18.811 7.963 8.058 18.717 8.058 31.982 C 8.058 45.245999999999995 18.811 56 32.076 56 L 32.076 51.987 C 21.027 51.987 12.07 43.03 12.07 31.982000000000003 C 12.07 20.933000000000003 21.027 11.976000000000003 32.076 11.976000000000003 L 32.076 7.963000000000003 Z" stroke-linecap="round" />
</g>
</svg>